<?xml version="1.0"?>
<svg xmlns="http://www.w3.org/2000/svg" id="Icons" viewBox="0 0 74 74" width="512" height="512"><path d="M69,72H5a3,3,0,0,1-3-3V5A3,3,0,0,1,5,2H69a3,3,0,0,1,3,3V69A3,3,0,0,1,69,72ZM5,4A1,1,0,0,0,4,5V69a1,1,0,0,0,1,1H69a1,1,0,0,0,1-1V5a1,1,0,0,0-1-1Z"/><rect x="3" y="16" width="68" height="2"/><path d="M62,14a4,4,0,1,1,4-4A4,4,0,0,1,62,14Zm0-6a2,2,0,1,0,2,2A2,2,0,0,0,62,8Z"/><path d="M51,14a4,4,0,1,1,4-4A4,4,0,0,1,51,14Zm0-6a2,2,0,1,0,2,2A2,2,0,0,0,51,8Z"/><path d="M26.94,60.239H22.917a1,1,0,0,1-.99-.858L21.4,55.732a12.861,12.861,0,0,1-2.882-1.2l-2.947,2.211a1,1,0,0,1-1.307-.093l-2.849-2.849a1,1,0,0,1-.093-1.307l2.211-2.946a12.859,12.859,0,0,1-1.2-2.882l-3.648-.524a1,1,0,0,1-.858-.99V41.131a1,1,0,0,1,.858-.99l3.648-.524a12.859,12.859,0,0,1,1.2-2.882l-2.211-2.946a1,1,0,0,1,.093-1.307l2.849-2.849a1,1,0,0,1,1.307-.093l2.947,2.211a12.837,12.837,0,0,1,2.882-1.2l.524-3.649a1,1,0,0,1,.99-.858H26.94a1,1,0,0,1,.99.858l.524,3.649a12.859,12.859,0,0,1,2.882,1.2l2.946-2.211a1,1,0,0,1,1.308.093l2.849,2.849a1,1,0,0,1,.093,1.308l-2.211,2.946a12.846,12.846,0,0,1,1.2,2.882l3.648.524a1,1,0,0,1,.858.99v4.024a1,1,0,0,1-.858.99l-3.648.524a12.846,12.846,0,0,1-1.2,2.882L38.532,52.5a1,1,0,0,1-.093,1.308L35.59,56.654a1,1,0,0,1-1.308.093l-2.946-2.211a12.874,12.874,0,0,1-2.882,1.2l-.524,3.648A1,1,0,0,1,26.94,60.239Zm-3.157-2h2.291l.5-3.456a1,1,0,0,1,.774-.834,10.875,10.875,0,0,0,3.517-1.46A1,1,0,0,1,32,52.532l2.79,2.095L36.412,53l-2.095-2.79a1,1,0,0,1-.043-1.139,10.872,10.872,0,0,0,1.46-3.516,1,1,0,0,1,.834-.774l3.456-.5V42l-3.456-.5a1,1,0,0,1-.834-.774,10.872,10.872,0,0,0-1.46-3.516,1,1,0,0,1,.043-1.139l2.095-2.79L34.79,31.66,32,33.755a1,1,0,0,1-1.139.043,10.863,10.863,0,0,0-3.517-1.459,1,1,0,0,1-.774-.834l-.5-3.456H23.783l-.5,3.456a1,1,0,0,1-.774.834A10.854,10.854,0,0,0,19,33.8a1,1,0,0,1-1.139-.043L15.067,31.66l-1.622,1.622,2.094,2.791a1,1,0,0,1,.043,1.138,10.863,10.863,0,0,0-1.459,3.517,1,1,0,0,1-.834.774L9.833,42v2.291l3.456.5a1,1,0,0,1,.834.774,10.863,10.863,0,0,0,1.459,3.517,1,1,0,0,1-.043,1.138L13.446,53l1.622,1.622,2.791-2.095A1,1,0,0,1,19,52.489a10.861,10.861,0,0,0,3.516,1.46,1,1,0,0,1,.774.834Z"/><path d="M24.929,50.582a7.438,7.438,0,1,1,7.438-7.438A7.447,7.447,0,0,1,24.929,50.582Zm0-12.876a5.438,5.438,0,1,0,5.438,5.438A5.444,5.444,0,0,0,24.929,37.705Z"/><path d="M55,62.661H52.089a1,1,0,0,1-.99-.858l-.354-2.457a9.559,9.559,0,0,1-1.809-.751l-1.984,1.489a1,1,0,0,1-1.308-.093l-2.057-2.058a1,1,0,0,1-.093-1.307l1.489-1.984a9.554,9.554,0,0,1-.751-1.81l-2.458-.354a1,1,0,0,1-.858-.99V48.583a1,1,0,0,1,.858-.99l2.458-.354a9.554,9.554,0,0,1,.751-1.81L43.5,43.447a1,1,0,0,1,.093-1.307l2.057-2.058a1,1,0,0,1,1.308-.093l1.984,1.489a9.559,9.559,0,0,1,1.809-.751L51.1,38.27a1,1,0,0,1,.99-.858H55a1,1,0,0,1,.99.858l.353,2.457a9.582,9.582,0,0,1,1.81.751l1.983-1.489a1,1,0,0,1,1.308.093L63.5,42.14a1,1,0,0,1,.093,1.308L62.1,45.431a9.55,9.55,0,0,1,.751,1.81l2.457.354a1,1,0,0,1,.858.99v2.906a1,1,0,0,1-.858.99l-2.457.354a9.55,9.55,0,0,1-.751,1.81l1.489,1.983a1,1,0,0,1-.093,1.308l-2.058,2.058a1,1,0,0,1-1.308.093l-1.983-1.489a9.582,9.582,0,0,1-1.81.751L55.985,61.8A1,1,0,0,1,55,62.661Zm-2.04-2h1.173l.324-2.257a1,1,0,0,1,.774-.834,7.566,7.566,0,0,0,2.45-1.017,1,1,0,0,1,1.139.043l1.822,1.368.831-.831L60.1,55.31a1,1,0,0,1-.043-1.139,7.566,7.566,0,0,0,1.017-2.45,1,1,0,0,1,.834-.774l2.257-.325V49.45l-2.257-.325a1,1,0,0,1-.834-.774,7.566,7.566,0,0,0-1.017-2.45,1,1,0,0,1,.043-1.139l1.368-1.822-.831-.831-1.822,1.368a1,1,0,0,1-1.139.043,7.566,7.566,0,0,0-2.45-1.017,1,1,0,0,1-.774-.834l-.324-2.257H52.956l-.325,2.257a1,1,0,0,1-.774.834,7.582,7.582,0,0,0-2.45,1.017,1,1,0,0,1-1.139-.043L46.446,42.11l-.831.831,1.368,1.823a1,1,0,0,1,.043,1.139,7.563,7.563,0,0,0-1.017,2.45,1,1,0,0,1-.834.773l-2.257.325v1.172l2.257.325a1,1,0,0,1,.834.773,7.563,7.563,0,0,0,1.017,2.45,1,1,0,0,1-.043,1.139l-1.368,1.823.831.831,1.822-1.368a1,1,0,0,1,1.139-.043,7.582,7.582,0,0,0,2.45,1.017,1,1,0,0,1,.774.834Z"/><path d="M53.542,55.686a5.65,5.65,0,1,1,5.649-5.649A5.656,5.656,0,0,1,53.542,55.686Zm0-9.3a3.65,3.65,0,1,0,3.649,3.65A3.654,3.654,0,0,0,53.542,46.387Z"/></svg>
